<svg xmlns="http://www.w3.org/2000/svg" width="106" height="54" viewBox="0 0 106 54">    <defs>        <style>            .cls-1 {            fill: url(#linear-gradient);            stroke-width: 0px;            }        </style>        <linearGradient id="linear-gradient" x1="2.26" y1="27.34" x2="103.38" y2="27.34" gradientUnits="userSpaceOnUse">            <stop offset="0" stop-color="#00c0ff"/>            <stop offset=".15" stop-color="#12a9fa"/>            <stop offset=".47" stop-color="#426ded"/>            <stop offset=".93" stop-color="#8f0fda"/>            <stop offset="1" stop-color="#9c00d7"/>        </linearGradient>    </defs>    <path class="cls-1" d="m19.02,2.78v1.9h-7.26v18.3h-2.28V4.68H2.26v-1.9h16.77Zm4.04,5.11c4.27,0,7.76,3.5,7.76,7.7s-3.5,7.7-7.76,7.7-7.73-3.41-7.73-7.7,3.47-7.7,7.73-7.7Zm0,13.42c3.05,0,5.54-2.55,5.54-5.69s-2.49-5.75-5.54-5.75-5.51,2.58-5.51,5.75,2.49,5.69,5.51,5.69Zm14.51-1.19l3.79-11.41h1.93l3.76,11.41,4.35-11.91h2.34l-5.54,14.75h-2.16l-3.73-11.11-3.73,11.11h-2.13l-5.57-14.75h2.34l4.36,11.91Zm29.53-5.54c0-3.58-1.9-4.71-3.79-4.71-1.63,0-4.98,1.16-5.04,5.93v7.17h-2.22v-14.75h2.22v3.14c.8-2.34,2.99-3.47,5.18-3.47,3.2,0,5.87,1.87,5.87,6.7v8.38h-2.22v-8.38ZM7.98,41.38c.53,1.84,1.84,2.84,3.76,2.84,1.63,0,3.11-.59,3.11-2.13,0-.8-.44-1.54-2.4-2.22l-2.25-.77c-4.59-1.57-5.27-4.44-5.27-6.16,0-3.73,2.93-6.04,6.99-6.04,3.2,0,5.69,1.54,6.93,4.53l-3.73,1.87c-.89-2.1-2.34-2.34-3.2-2.34-1.42,0-2.52.56-2.52,1.93,0,.53.15,1.51,2.22,2.22l2.19.77c4.65,1.45,5.48,4.24,5.51,6.13,0,4.35-3.79,6.28-7.44,6.28-3.97,0-7.58-2.25-8-6.1l4.09-.8Zm47.1,6.58h-4.41v-2.07c-1.27,1.78-2.87,2.4-4.71,2.4-4.27,0-5.42-3.41-5.42-7.26v-8.27h4.41v8.18c0,2.1.77,3.7,2.81,3.7s2.9-1.63,2.9-3.73v-8.15h4.41v15.2Zm18.69-15.2v15.2h-4.41v-2.22c-1.1,1.57-2.55,2.55-4.77,2.55-4.62,0-7.41-3.55-7.41-8s2.58-7.85,7.32-7.85c2.04,0,3.82,1.01,4.86,2.4v-2.07h4.41Zm-8.27,11.94c2.16,0,3.97-1.39,3.97-4.15s-1.69-4.53-4.09-4.53-3.79,1.96-3.79,4.3,1.48,4.38,3.91,4.38Zm15.09-8.62c.5-2.76,2.84-3.64,4.18-3.64.5,0,.65.03,1.13.12v4.36c-.62-.15-1.42-.21-1.87-.21-1.66,0-3.32.98-3.32,2.99v8.27h-4.41v-15.2h4.3v3.32Zm21.95,9.21c-2.16,2.37-5.04,2.99-7.08,2.99-5.63,0-8.71-3.53-8.71-7.85s3.5-8,8.38-8c4.21,0,8.24,2.9,8.24,8.95h-12.24c.09,1.9,1.84,3.29,4.65,3.29,1.57,0,3.14-.8,4.21-1.81l2.55,2.43Zm-11.32-6.58h7.61c-.3-1.96-2.28-2.7-3.76-2.7s-3.32.65-3.85,2.7Zm-57.84,7.17v6.02h4.41v-19.15h-4.41v2.22c-1.1-1.57-2.55-2.55-4.77-2.55-4.62,0-7.41,3.56-7.41,8s2.58,7.85,7.32,7.85c2.04,0,3.82-1.01,4.86-2.4Zm-3.97-1.19c-2.43,0-3.79-1.96-3.79-4.3s1.48-4.38,3.91-4.38c2.16,0,3.97,1.39,3.97,4.15s-1.69,4.53-4.09,4.53Z"/></svg>