<svg xmlns="http://www.w3.org/2000/svg" id="Layer_1" width="2353.73" height="346.87" viewBox="0 0 2353.73 346.87"><path d="M232.55,10.03v26.29h-100.66v253.73h-31.63V36.32H0V10.03h232.55ZM288.53,80.93c59.16,0,107.64,48.48,107.64,106.82s-48.48,106.82-107.64,106.82-107.24-47.25-107.24-106.82,48.07-106.82,107.24-106.82ZM288.53,267.05c42.32,0,76.83-35.33,76.83-78.88s-34.51-79.71-76.83-79.71-76.42,35.75-76.42,79.71,34.51,78.88,76.42,78.88ZM489.83,250.61l52.59-158.18h26.71l52.18,158.18,60.39-165.17h32.46l-76.83,204.61h-29.99l-51.77-154.07-51.77,154.07h-29.58l-77.24-204.61h32.46l60.4,165.17ZM899.42,173.79c0-49.71-26.29-65.33-52.59-65.33-22.6,0-69.02,16.02-69.85,82.17v99.43h-30.81V85.45h30.81v43.55c11.1-32.46,41.5-48.07,71.9-48.07,44.37,0,81.35,25.88,81.35,92.86v116.27h-30.81v-116.27ZM1030.7,200.91c7.4,25.48,25.48,39.44,52.18,39.44,22.6,0,43.14-8.22,43.14-29.58,0-11.1-6.16-21.37-33.28-30.81l-31.23-10.68c-63.68-21.78-73.13-61.63-73.13-85.46,0-51.77,40.67-83.82,96.96-83.82,44.37,0,78.88,21.36,96.14,62.86l-51.77,25.88c-12.33-29.17-32.46-32.46-44.37-32.46-19.72,0-34.92,7.81-34.92,26.71,0,7.4,2.05,20.96,30.81,30.81l30.4,10.68c64.51,20.13,76.01,58.75,76.42,85.05,0,60.39-52.59,87.1-103.13,87.1-55.05,0-105.18-31.23-110.93-84.64l56.7-11.1ZM1683.92,292.12h-61.22v-28.76c-17.66,24.65-39.85,33.28-65.33,33.28-59.16,0-75.19-47.25-75.19-100.66v-114.63h61.22v113.4c0,29.17,10.68,51.36,39.03,51.36s40.26-22.6,40.26-51.77v-112.99h61.22v210.77ZM1943.13,81.35v210.77h-61.22v-30.81c-15.2,21.78-35.33,35.33-66.15,35.33-64.09,0-102.72-49.3-102.72-110.93s35.75-108.88,101.48-108.88c28.35,0,53,13.97,67.38,33.28v-28.76h61.22ZM1828.49,246.93c29.99,0,55.06-19.31,55.06-57.52s-23.42-62.86-56.7-62.86-52.59,27.12-52.59,59.58,20.54,60.81,54.23,60.81ZM2037.8,127.37c6.98-38.21,39.44-50.54,57.93-50.54,6.98,0,9.04.41,15.61,1.64v60.4c-8.63-2.06-19.72-2.88-25.88-2.88-23.01,0-46.02,13.56-46.02,41.49v114.63h-61.22V81.35h59.57v46.02ZM2342.23,255.14c-29.99,32.87-69.85,41.5-98.2,41.5-78.06,0-120.79-48.89-120.79-108.88s48.48-110.93,116.27-110.93c58.34,0,114.22,40.27,114.22,124.08h-169.69c1.24,26.29,25.48,45.61,64.51,45.61,21.78,0,43.55-11.09,58.34-25.06l35.33,33.69ZM2185.28,163.93h105.59c-4.11-27.12-31.63-37.39-52.18-37.39s-46.02,9.04-53.41,37.39ZM1383.19,263.36v83.51h61.22V81.35h-61.22v30.81c-15.2-21.78-35.33-35.33-66.15-35.33-64.1,0-102.72,49.31-102.72,110.93s35.75,108.88,101.48,108.88c28.35,0,53-13.97,67.38-33.28ZM1328.14,246.93c-33.69,0-52.59-27.11-52.59-59.57s20.54-60.81,54.23-60.81c29.99,0,55.06,19.31,55.06,57.52s-23.42,62.86-56.7,62.86Z" fill="#fff" stroke-width="0"></path></svg>